<svg height="589pt" preserveAspectRatio="xMidYMid meet" viewBox="0 0 589 589" width="589pt" xmlns="http://www.w3.org/2000/svg"><g transform="matrix(.1 0 0 -.1 0 589)"><path d="m0 2945v-2945h2945 2945v2945 2945h-2945-2945zm3253 2215c270-39 448-89 681-192 312-137 597-351 827-620 23-27 38-48 35-48-4 0 5-12 19-27 43-46 53-73 14-38-18 17-27 22-20 13s9-23 5-29c-4-7-3-9 3-6 11 7 63-14 63-25 0-5-8-8-17-9-11 0-13-3-5-6 20-8 14-23-10-24-22-2-22-2-2-6 16-3 20-9 17-24-4-15 0-22 16-26 11-3 21-10 21-15s-4-7-10-3c-5 3-9-462-10-1256 0-1114 1-1261 14-1256 9 4 18 1 22-6s4-9-1-5c-9 9-35-9-35-24 0-6 8-4 17 3 15 12 16 12 8-1-4-8-16-24-25-35-25-29-33-55-14-48 20 8 17-11-6-32-10-9-18-20-17-24 4-13-56-81-66-74-6 3-7 1-3-5 4-7 2-12-4-12s-9-4-6-9-9-23-28-39c-19-17-33-32-30-34 7-7-184-185-275-256-138-108-267-189-426-267-504-247-1058-305-1606-169-465 115-942 413-1215 759-21 28-42 52-46 53-5 2-8 10-8 18s-4 14-9 14c-8 0-45 49-76 100-8 13-7 13 10 0 17-14 18-13 12 2-4 12-2 15 9 11 16-6 19-23 4-23-5 0-10-4-10-10 0-16 17-12 24 6 6 15-12 50-26 53-8 1-9 2-7 24 0 9 2 9 6 0 8-22 20-14 20 14 0 16 1 588 2 1272 1 1230 1 1243-19 1276-11 18-20 36-20 41s5 1 11-8c14-25 32-23 19 2-6 11-7 20-2 20 4 0 9 8 10 18 1 9 3 28 4 42 2 14 16 42 33 62 24 31 32 35 45 25s13-10 1 5c-16 21-4 35 154 193 362 364 809 582 1360 664 85 12 482 13 568 1zm-2175-970c-7-10-14-18-15-16-6 6 9 36 18 36 5 0 4-9-3-20zm3815-35c-3-9-8-14-10-11-3 3-2 9 2 15 9 16 15 13 8-4zm-3863-2637c0-4-4-8-9-8-6 0-12 4-15 8-3 5 1 9 9 9s15-4 15-9zm3883-33c-3-9-8-14-10-11-3 3-2 9 2 15 9 16 15 13 8-4z"/><path d="m4749 4303c-13-16-12-17 4-4s21 21 13 21c-2 0-10-8-17-17z"/><path d="m1101 4235c0-5 4-19 8-29 7-19 8-19 13 2 4 12 2 20-2 17-5-3-11 1-13 7-3 7-5 9-6 3z"/><path d="m4850 3980c0-5 5-10 11-10 5 0 7 5 4 10-3 6-8 10-11 10-2 0-4-4-4-10z"/><path d="m2349 3913c-48-127-369-1107-366-1116 3-7 70-86 149-178 160-185 450-521 661-766 116-135 145-163 167-163 14 0 33 6 42 13 8 6 127 143 264 302 136 160 344 401 461 537 147 170 213 254 213 270-1 45-364 1110-382 1122-13 8-23 8-35 0-10-6-65-111-123-233l-105-221h-332-332l-25 53c-13 28-62 132-109 230-78 162-88 177-112 177-19 0-28-7-36-27zm127-900c100-34 209-182 268-368 47-149 95-447 99-620 2-75 1-80-20-83-22-3-56 35-578 648-198 233-187 217-171 249 8 14 32 42 53 62 124 117 232 152 349 112zm1195-20c70-35 189-145 189-175 0-10-80-111-177-225-97-115-226-266-287-338-61-71-113-132-116-135s-39-44-79-92c-72-86-97-102-119-75-11 13 2 184 28 367 42 292 117 495 223 608 102 108 208 129 338 65z"/><path d="m2405 2705c-64-63 16-169 90-121 51 33 56 86 13 126-30 27-73 26-103-5z"/><path d="m3415 2705c-46-45-23-118 40-131 74-14 118 88 59 135-35 28-69 26-99-4z"/><path d="m4851 1544c0-11 3-14 6-6 3 7 2 16-1 19-3 4-6-2-5-13z"/><path d="m4811 1464c0-11 3-14 6-6 3 7 2 16-1 19-3 4-6-2-5-13z"/><path d="m1097 1433c-4-3-7-11-7-17s5-5 12 2c6 6 9 14 7 17-3 3-9 2-12-2z"/></g></svg>